<svg xmlns="http://www.w3.org/2000/svg" xmlns:xlink="http://www.w3.org/1999/xlink" width="200" zoomAndPan="magnify" viewBox="0 0 150 30.000001" height="40" preserveAspectRatio="xMidYMid meet" version="1.0"><defs><g/><clipPath id="2b8d3b4c0c"><path d="M 2.417969 2 L 24.917969 2 L 24.917969 26.414062 L 2.417969 26.414062 Z M 2.417969 2 " clip-rule="nonzero"/></clipPath><clipPath id="6a08153ef0"><path d="M 2.417969 1.734375 L 24.917969 1.734375 L 24.917969 26.414062 L 2.417969 26.414062 Z M 2.417969 1.734375 " clip-rule="nonzero"/></clipPath></defs><g clip-path="url(#2b8d3b4c0c)"><path fill="#000000" d="M 11.039062 2.027344 C 10.941406 2.027344 10.523438 2.246094 10.328125 2.40625 C 10.214844 2.496094 9.054688 2.941406 8.253906 3.199219 C 7.347656 3.496094 7.089844 3.566406 6.605469 3.660156 C 5.847656 3.804688 5.414062 4.140625 5.0625 4.851562 C 4.964844 5.054688 4.847656 5.378906 4.804688 5.570312 C 4.757812 5.765625 4.703125 5.945312 4.675781 5.972656 C 4.648438 5.996094 4.628906 6.113281 4.628906 6.226562 C 4.628906 6.425781 4.609375 6.46875 4.304688 6.882812 C 4.261719 6.941406 4.210938 7.140625 4.1875 7.324219 C 4.160156 7.566406 4.117188 7.691406 4.03125 7.78125 C 3.933594 7.886719 3.910156 7.988281 3.871094 8.421875 C 3.820312 8.984375 3.796875 9.082031 3.457031 10.171875 C 3.195312 11.011719 2.976562 11.839844 2.835938 12.558594 C 2.726562 13.109375 2.632812 13.917969 2.667969 14.050781 C 2.679688 14.097656 2.78125 14.167969 2.898438 14.210938 L 3.386719 14.390625 C 4.246094 14.703125 4.519531 14.757812 5.394531 14.777344 L 6.230469 14.796875 L 6.40625 14.972656 C 6.5625 15.128906 6.613281 15.148438 6.832031 15.148438 C 6.96875 15.148438 7.078125 15.167969 7.078125 15.1875 C 7.078125 15.289062 6.8125 16.292969 6.753906 16.40625 C 6.652344 16.605469 6.617188 17.242188 6.683594 17.640625 C 6.773438 18.167969 6.761719 18.347656 6.605469 18.871094 C 6.441406 19.421875 6.457031 19.605469 6.726562 20.21875 C 6.90625 20.632812 6.914062 20.832031 6.777344 21.183594 C 6.664062 21.476562 6.652344 21.742188 6.742188 21.902344 C 6.785156 21.976562 6.8125 22.40625 6.832031 23.246094 C 6.863281 24.488281 6.953125 25.195312 7.097656 25.347656 C 7.148438 25.398438 7.230469 25.402344 7.457031 25.363281 C 7.792969 25.3125 8.910156 25.371094 9.300781 25.460938 C 9.441406 25.492188 9.824219 25.59375 10.152344 25.6875 C 10.753906 25.855469 11.625 26.039062 12 26.078125 C 12.113281 26.089844 12.6875 26.09375 13.277344 26.085938 C 14.148438 26.074219 14.449219 26.050781 14.875 25.964844 C 15.765625 25.777344 16.210938 25.636719 17.179688 25.226562 C 18.242188 24.773438 19.023438 24.535156 19.636719 24.472656 C 19.890625 24.445312 19.992188 24.414062 20.027344 24.347656 C 20.089844 24.226562 20.085938 23.152344 20.023438 22.65625 C 19.992188 22.441406 19.921875 22.125 19.863281 21.957031 L 19.761719 21.648438 L 19.945312 21.214844 C 20.300781 20.382812 20.351562 19.726562 20.089844 19.339844 C 19.996094 19.199219 19.972656 19.117188 19.996094 19 C 20.292969 17.621094 20.339844 16.460938 20.140625 15.40625 L 20.109375 15.238281 L 20.453125 15.277344 C 21.074219 15.347656 21.339844 15.277344 21.640625 14.957031 C 21.75 14.84375 21.847656 14.796875 22.042969 14.769531 C 22.652344 14.6875 23.457031 14.476562 24.097656 14.230469 C 24.695312 14.003906 24.683594 14.023438 24.523438 13.492188 C 24.46875 13.3125 24.355469 12.914062 24.269531 12.609375 C 24.066406 11.875 23.769531 10.917969 23.464844 10 C 23.242188 9.324219 23.21875 9.21875 23.25 8.964844 C 23.289062 8.601562 23.214844 8.3125 23.03125 8.152344 C 22.898438 8.03125 22.886719 7.988281 22.855469 7.550781 C 22.824219 7.105469 22.628906 6.199219 22.523438 5.996094 C 22.496094 5.945312 22.472656 5.847656 22.472656 5.777344 C 22.472656 5.707031 22.414062 5.488281 22.339844 5.289062 C 22.136719 4.742188 21.753906 4.355469 21.101562 4.035156 C 20.824219 3.902344 20.292969 3.6875 19.921875 3.558594 C 17.90625 2.863281 17.503906 2.699219 17 2.363281 C 16.761719 2.203125 16.691406 2.175781 16.605469 2.21875 C 16.15625 2.4375 14.859375 2.628906 13.855469 2.628906 C 12.847656 2.628906 12.140625 2.488281 11.402344 2.144531 C 11.265625 2.078125 11.101562 2.027344 11.039062 2.027344 Z M 10.972656 2.226562 C 11 2.226562 11.070312 2.316406 11.125 2.421875 C 11.304688 2.777344 11.835938 3.441406 12.15625 3.703125 C 12.777344 4.21875 13.503906 4.464844 14.0625 4.34375 C 14.664062 4.214844 15.1875 3.949219 15.71875 3.496094 C 15.976562 3.273438 16.472656 2.722656 16.628906 2.480469 L 16.710938 2.355469 L 16.917969 2.492188 C 17.03125 2.570312 17.125 2.65625 17.125 2.683594 C 17.125 2.800781 16.8125 3.34375 16.554688 3.667969 C 16.023438 4.335938 15.332031 4.746094 14.425781 4.917969 C 13.328125 5.132812 12.308594 4.808594 11.433594 3.964844 C 10.964844 3.515625 10.476562 2.796875 10.476562 2.5625 C 10.476562 2.492188 10.867188 2.226562 10.972656 2.226562 Z M 17.445312 2.832031 C 17.453125 2.832031 17.617188 2.894531 17.804688 2.972656 C 17.996094 3.050781 18.285156 3.164062 18.449219 3.222656 L 19.695312 3.65625 C 20.804688 4.042969 21.363281 4.304688 21.679688 4.582031 C 21.921875 4.796875 22.175781 5.230469 22.269531 5.582031 C 22.332031 5.824219 22.316406 5.875 21.957031 6.449219 L 21.753906 6.769531 L 21.683594 6.597656 C 21.574219 6.328125 21.480469 6.25 21.265625 6.25 C 21.113281 6.25 21.035156 6.289062 20.875 6.4375 C 20.644531 6.65625 20.597656 6.804688 20.425781 7.859375 C 20.363281 8.230469 20.304688 8.546875 20.292969 8.558594 C 20.28125 8.570312 20.273438 8.269531 20.273438 7.890625 C 20.273438 6.703125 20.070312 5.597656 19.851562 5.597656 C 19.726562 5.597656 19.667969 6.613281 19.738281 7.53125 C 19.765625 7.917969 19.796875 8.316406 19.847656 8.914062 C 19.96875 10.34375 19.921875 11.796875 19.71875 12.988281 C 19.566406 13.90625 19.523438 14.046875 18.671875 16.628906 C 18.289062 17.792969 17.953125 18.816406 17.925781 18.898438 C 17.863281 19.085938 17.859375 19.324219 17.914062 19.324219 C 18.019531 19.324219 18.292969 18.941406 18.96875 17.863281 L 19.078125 17.6875 L 19.042969 17.839844 C 18.988281 18.082031 18.757812 18.734375 18.410156 19.625 C 18.035156 20.582031 17.824219 21.050781 17.589844 21.421875 C 17.40625 21.714844 17.386719 21.824219 17.503906 21.871094 C 17.636719 21.921875 17.777344 21.726562 18.128906 21.007812 C 18.519531 20.191406 18.785156 19.527344 19.347656 17.914062 C 19.4375 17.652344 19.53125 17.398438 19.550781 17.351562 C 19.589844 17.246094 19.675781 17.28125 19.675781 17.40625 C 19.675781 17.457031 19.746094 17.640625 19.832031 17.8125 C 20.003906 18.160156 20.003906 18.167969 19.828125 19.046875 C 19.738281 19.484375 18.710938 21.417969 17.890625 22.683594 C 17.613281 23.117188 17.574219 23.269531 17.75 23.269531 C 17.820312 23.269531 17.9375 23.140625 18.132812 22.84375 C 18.539062 22.226562 19.230469 21.019531 19.636719 20.21875 C 19.832031 19.839844 20.007812 19.539062 20.027344 19.550781 C 20.105469 19.601562 20.128906 19.980469 20.074219 20.265625 C 19.957031 20.851562 19.648438 21.589844 19.378906 21.9375 C 19.011719 22.410156 18.601562 22.847656 18.339844 23.050781 C 18.144531 23.203125 18.074219 23.289062 18.085938 23.367188 C 18.09375 23.421875 18.132812 23.476562 18.175781 23.484375 C 18.289062 23.507812 18.851562 23.007812 19.296875 22.492188 L 19.699219 22.027344 L 19.753906 22.171875 C 19.847656 22.402344 19.933594 23.28125 19.914062 23.796875 L 19.898438 24.277344 L 19.75 24.289062 C 19.089844 24.347656 18.132812 24.636719 17.050781 25.105469 C 16.328125 25.417969 15.539062 25.664062 14.800781 25.808594 C 14.183594 25.925781 12.679688 25.984375 12.027344 25.910156 C 11.5 25.851562 10.6875 25.679688 10.128906 25.507812 C 9.5 25.316406 8.898438 25.207031 8.460938 25.203125 C 8.265625 25.203125 8.058594 25.191406 8.003906 25.175781 C 7.875 25.140625 7.191406 23.796875 7.25 23.699219 C 7.308594 23.605469 7.632812 23.65625 8.578125 23.917969 C 9.253906 24.105469 10.34375 24.378906 10.753906 24.46875 C 11.089844 24.539062 11.34375 24.589844 11.925781 24.699219 C 12.597656 24.824219 14.542969 25.003906 15.226562 25.003906 C 15.714844 25.003906 16.792969 24.875 16.929688 24.800781 C 17.007812 24.757812 17.023438 24.730469 16.976562 24.6875 C 16.910156 24.617188 16.328125 24.628906 16.070312 24.703125 C 15.839844 24.769531 15.328125 24.765625 15.039062 24.695312 C 14.253906 24.503906 12.753906 23.941406 11.660156 23.425781 C 11.390625 23.296875 11.160156 23.195312 11.148438 23.195312 C 11.101562 23.195312 10.144531 22.621094 9.808594 22.394531 C 9.261719 22.019531 8.660156 21.355469 8.285156 20.703125 C 8.109375 20.402344 7.84375 19.949219 7.699219 19.699219 C 7.066406 18.609375 6.882812 17.816406 7.265625 17.816406 C 7.375 17.816406 7.496094 17.910156 7.828125 18.257812 C 8.179688 18.621094 8.324219 18.824219 8.671875 19.449219 C 9.207031 20.40625 9.648438 21.078125 10.074219 21.574219 C 10.429688 21.988281 10.628906 22.09375 10.628906 21.875 C 10.628906 21.804688 10.578125 21.710938 10.519531 21.65625 C 10.390625 21.539062 9.976562 21.003906 9.976562 20.953125 C 9.976562 20.933594 10.09375 21.03125 10.238281 21.167969 C 11.433594 22.300781 13.40625 23.242188 15.25 23.5625 C 16.480469 23.777344 16.574219 23.785156 16.574219 23.671875 C 16.574219 23.628906 16.5625 23.597656 16.550781 23.597656 C 16.457031 23.597656 15.71875 23.371094 15.53125 23.289062 C 14.949219 23.023438 14.492188 22.773438 14.402344 22.664062 C 14.347656 22.601562 14.144531 22.441406 13.953125 22.3125 C 12.128906 21.082031 9.964844 18.578125 8.824219 16.382812 C 8.652344 16.050781 8.464844 15.730469 8.402344 15.667969 C 8.175781 15.445312 7.710938 13.742188 7.484375 12.285156 C 7.167969 10.253906 7.109375 7.730469 7.320312 5.09375 C 7.351562 4.707031 7.363281 4.664062 7.480469 4.609375 C 7.546875 4.574219 8.175781 4.359375 8.878906 4.132812 C 9.578125 3.90625 10.246094 3.675781 10.359375 3.625 C 10.472656 3.574219 10.597656 3.546875 10.636719 3.5625 C 10.671875 3.578125 10.800781 3.714844 10.917969 3.863281 C 11.179688 4.191406 11.699219 4.621094 12.09375 4.835938 C 12.742188 5.1875 13.554688 5.34375 14.261719 5.246094 C 15.5625 5.066406 16.523438 4.402344 17.207031 3.21875 C 17.332031 3.003906 17.441406 2.832031 17.445312 2.832031 Z M 6.292969 5.226562 C 6.363281 5.214844 6.367188 5.304688 6.296875 5.484375 C 6.207031 5.710938 6.089844 5.757812 5.972656 5.617188 C 5.917969 5.546875 5.933594 5.511719 6.097656 5.359375 C 6.1875 5.277344 6.253906 5.234375 6.292969 5.226562 Z M 5.785156 5.847656 C 5.804688 5.847656 5.882812 5.898438 5.953125 5.960938 L 6.085938 6.074219 L 6.011719 6.402344 C 5.96875 6.582031 5.921875 6.8125 5.90625 6.917969 C 5.886719 7.019531 5.855469 7.105469 5.835938 7.105469 C 5.789062 7.105469 5.480469 6.785156 5.480469 6.738281 C 5.480469 6.71875 5.511719 6.703125 5.546875 6.703125 C 5.644531 6.703125 5.679688 6.585938 5.714844 6.1875 C 5.730469 6 5.761719 5.847656 5.785156 5.847656 Z M 22.421875 6.300781 C 22.488281 6.300781 22.625 6.941406 22.691406 7.570312 C 22.75 8.109375 22.765625 8.164062 22.886719 8.261719 C 23.058594 8.398438 23.121094 8.632812 23.070312 8.957031 C 23.035156 9.1875 23.050781 9.28125 23.207031 9.730469 C 23.660156 11.054688 24.28125 13.152344 24.234375 13.195312 C 24.179688 13.246094 23.753906 13.371094 22.878906 13.59375 C 22.453125 13.703125 22.078125 13.792969 22.039062 13.792969 C 21.957031 13.792969 21.953125 13.539062 22.019531 12.5 C 22.046875 12.089844 22.078125 10.628906 22.09375 9.253906 L 22.121094 6.75 L 22.25 6.527344 C 22.324219 6.402344 22.402344 6.300781 22.421875 6.300781 Z M 21.257812 6.5625 C 21.386719 6.5625 21.421875 6.640625 21.417969 6.851562 C 21.414062 7.003906 21.363281 7.074219 21.089844 7.328125 L 20.769531 7.628906 L 20.800781 7.40625 C 20.820312 7.28125 20.851562 7.113281 20.875 7.03125 C 20.894531 6.945312 20.929688 6.816406 20.945312 6.742188 C 20.96875 6.636719 21.011719 6.597656 21.15625 6.570312 C 21.195312 6.566406 21.230469 6.5625 21.257812 6.5625 Z M 5.316406 7.109375 C 5.351562 7.109375 5.425781 7.164062 5.566406 7.292969 L 5.832031 7.53125 L 5.773438 7.734375 C 5.714844 7.941406 5.730469 8.996094 5.824219 10.953125 C 5.851562 11.476562 5.894531 12.480469 5.925781 13.179688 C 5.953125 13.878906 5.988281 14.46875 6.003906 14.496094 C 6.019531 14.519531 5.988281 14.566406 5.933594 14.59375 C 5.695312 14.722656 4.257812 14.578125 4.121094 14.410156 C 4.089844 14.371094 4.0625 14.234375 4.066406 14.105469 C 4.066406 13.960938 4.035156 13.832031 3.988281 13.777344 C 3.925781 13.703125 3.921875 13.660156 3.976562 13.476562 C 4.105469 13.03125 4.476562 12.589844 4.996094 12.261719 C 5.152344 12.160156 5.296875 12.042969 5.3125 12.003906 C 5.378906 11.832031 5.253906 11.636719 4.78125 11.171875 L 4.285156 10.6875 L 4.335938 10.492188 C 4.363281 10.386719 4.453125 10.0625 4.535156 9.773438 C 4.613281 9.484375 4.679688 9.191406 4.679688 9.117188 C 4.679688 8.925781 4.8125 8.769531 5.058594 8.660156 C 5.304688 8.554688 5.332031 8.460938 5.199219 8.203125 C 5.128906 8.066406 5.128906 8.011719 5.199219 7.640625 C 5.242188 7.414062 5.28125 7.191406 5.289062 7.144531 C 5.292969 7.121094 5.300781 7.109375 5.316406 7.109375 Z M 21.792969 7.261719 C 21.796875 7.261719 21.800781 7.265625 21.800781 7.265625 C 21.84375 7.308594 21.71875 13.824219 21.671875 14 C 21.617188 14.203125 21.40625 14.410156 21.136719 14.523438 C 21.039062 14.5625 20.917969 14.597656 20.863281 14.597656 C 20.769531 14.597656 20.769531 14.558594 20.800781 13 C 20.828125 11.640625 20.851562 11.347656 20.933594 11.027344 C 21.085938 10.449219 21.152344 10.175781 21.222656 9.84375 C 21.257812 9.679688 21.300781 9.476562 21.324219 9.390625 C 21.347656 9.308594 21.402344 9.027344 21.445312 8.765625 C 21.492188 8.5 21.550781 8.191406 21.578125 8.074219 C 21.601562 7.960938 21.625 7.792969 21.625 7.707031 C 21.625 7.566406 21.742188 7.265625 21.792969 7.261719 Z M 21.386719 7.433594 L 21.355469 7.582031 C 21.339844 7.664062 21.316406 7.835938 21.296875 7.960938 C 21.242188 8.367188 20.890625 10.070312 20.855469 10.105469 C 20.84375 10.117188 20.824219 10.054688 20.804688 9.96875 C 20.789062 9.882812 20.753906 9.828125 20.726562 9.84375 C 20.699219 9.863281 20.652344 9.949219 20.628906 10.035156 C 20.566406 10.25 20.5625 9.191406 20.621094 8.679688 C 20.65625 8.363281 20.691406 8.277344 20.886719 8 C 21.011719 7.824219 21.175781 7.625 21.25 7.558594 Z M 24.300781 13.507812 C 24.34375 13.503906 24.375 13.539062 24.390625 13.609375 C 24.410156 13.679688 24.433594 13.765625 24.449219 13.808594 C 24.46875 13.859375 24.429688 13.910156 24.335938 13.960938 C 24.097656 14.085938 23.28125 14.34375 22.722656 14.472656 C 22.121094 14.613281 21.921875 14.625 21.921875 14.527344 C 21.921875 14.492188 21.9375 14.359375 21.953125 14.234375 C 21.980469 14.03125 21.996094 14.011719 22.101562 14.03125 C 22.210938 14.054688 22.804688 13.941406 23.148438 13.839844 C 23.230469 13.8125 23.5 13.734375 23.746094 13.664062 C 23.996094 13.59375 24.234375 13.523438 24.28125 13.511719 C 24.285156 13.507812 24.292969 13.507812 24.300781 13.507812 Z M 6.445312 13.546875 C 6.449219 13.546875 6.449219 13.546875 6.449219 13.546875 C 6.46875 13.566406 6.5625 13.859375 6.660156 14.203125 C 6.757812 14.542969 6.851562 14.863281 6.863281 14.910156 C 6.882812 14.972656 6.863281 15 6.792969 15 C 6.617188 15 6.519531 14.878906 6.507812 14.644531 C 6.5 14.523438 6.476562 14.21875 6.453125 13.96875 C 6.433594 13.734375 6.433594 13.554688 6.445312 13.546875 Z M 21.601562 14.636719 C 21.617188 14.636719 21.625 14.636719 21.625 14.644531 C 21.625 14.722656 21.367188 15 21.21875 15.078125 C 21.050781 15.164062 20.792969 15.171875 20.746094 15.09375 C 20.703125 15.027344 20.851562 14.898438 20.964844 14.898438 C 21.003906 14.898438 21.167969 14.832031 21.332031 14.75 C 21.453125 14.6875 21.554688 14.644531 21.601562 14.636719 Z M 7.125 15.832031 C 7.136719 15.832031 7.148438 15.859375 7.167969 15.902344 C 7.25 16.101562 7.417969 16.570312 7.453125 16.695312 C 7.472656 16.757812 7.476562 16.808594 7.46875 16.808594 C 7.460938 16.804688 7.34375 16.703125 7.210938 16.582031 L 6.96875 16.359375 L 7.042969 16.066406 C 7.085938 15.898438 7.105469 15.832031 7.125 15.832031 Z M 7.957031 17.09375 C 7.976562 17.101562 8.0625 17.234375 8.179688 17.4375 C 8.863281 18.625 9.535156 19.414062 10.476562 20.15625 C 11.015625 20.578125 11.425781 20.984375 11.425781 21.089844 C 11.425781 21.285156 10.976562 21.132812 10.34375 20.71875 C 9.835938 20.390625 9.59375 20.113281 9.144531 19.367188 C 8.925781 18.996094 8.648438 18.539062 8.53125 18.351562 C 8.332031 18.019531 8.027344 17.367188 7.953125 17.109375 C 7.953125 17.097656 7.953125 17.09375 7.957031 17.09375 Z M 6.675781 19.296875 L 6.769531 19.523438 C 7.324219 20.855469 8.011719 21.972656 8.542969 22.398438 C 8.761719 22.574219 10.148438 23.292969 10.265625 23.296875 C 10.316406 23.296875 10.976562 23.566406 11.160156 23.664062 C 11.242188 23.707031 11.339844 23.777344 11.375 23.820312 C 11.46875 23.933594 11.394531 23.917969 10.628906 23.660156 C 10.035156 23.460938 8.65625 22.878906 7.742188 22.433594 C 7.40625 22.273438 7.097656 22.140625 7.0625 22.140625 C 7.023438 22.140625 6.953125 22.011719 6.902344 21.859375 C 6.808594 21.582031 6.804688 21.578125 6.917969 21.269531 C 7.070312 20.835938 7.0625 20.5625 6.875 20.164062 C 6.792969 19.984375 6.714844 19.71875 6.699219 19.570312 Z M 6.996094 22.390625 C 7.007812 22.390625 7.308594 22.53125 7.660156 22.707031 L 8.679688 23.207031 C 9.113281 23.417969 9.105469 23.421875 8.503906 23.273438 C 7.824219 23.101562 7.410156 23.03125 7.195312 23.050781 L 7.003906 23.070312 L 6.988281 22.730469 C 6.980469 22.542969 6.984375 22.390625 6.996094 22.390625 Z M 6.996094 22.390625 " fill-opacity="0.071" fill-rule="nonzero"/></g><g clip-path="url(#6a08153ef0)"><path fill="#000000" d="M 11.101562 1.734375 C 11.089844 1.734375 11.078125 1.734375 11.066406 1.734375 C 11.054688 1.734375 11.046875 1.738281 11.035156 1.738281 C 11.035156 1.738281 11.03125 1.738281 11.03125 1.738281 C 10.894531 1.761719 10.6875 1.859375 10.34375 2.066406 C 9.691406 2.449219 7.652344 3.175781 6.660156 3.375 C 6.089844 3.492188 5.722656 3.640625 5.417969 3.886719 C 5.1875 4.074219 4.839844 4.585938 4.683594 4.960938 C 4.527344 5.347656 4.320312 6.0625 4.320312 6.230469 C 4.320312 6.320312 4.253906 6.460938 4.148438 6.597656 C 3.972656 6.832031 3.871094 7.113281 3.871094 7.378906 C 3.871094 7.46875 3.839844 7.5625 3.800781 7.597656 C 3.648438 7.722656 3.566406 8.007812 3.542969 8.480469 C 3.527344 8.855469 3.480469 9.078125 3.324219 9.570312 C 2.878906 10.953125 2.570312 12.152344 2.496094 12.777344 C 2.484375 12.867188 2.46875 13.101562 2.453125 13.363281 C 2.453125 13.375 2.453125 13.382812 2.453125 13.394531 C 2.445312 13.507812 2.4375 13.621094 2.433594 13.726562 C 2.429688 13.84375 2.429688 13.9375 2.425781 14.019531 C 2.425781 14.199219 2.429688 14.292969 2.449219 14.34375 C 2.449219 14.347656 2.449219 14.347656 2.449219 14.347656 C 2.484375 14.460938 2.554688 14.488281 2.6875 14.515625 C 2.773438 14.535156 2.96875 14.601562 3.121094 14.664062 C 3.402344 14.78125 3.917969 14.945312 4.320312 15.042969 C 4.445312 15.070312 4.894531 15.109375 5.320312 15.125 C 6.042969 15.152344 6.101562 15.160156 6.222656 15.273438 C 6.289062 15.335938 6.421875 15.417969 6.515625 15.449219 C 6.5625 15.46875 6.597656 15.480469 6.621094 15.496094 C 6.636719 15.507812 6.648438 15.519531 6.65625 15.535156 C 6.667969 15.570312 6.664062 15.617188 6.648438 15.707031 C 6.628906 15.816406 6.570312 16.035156 6.511719 16.191406 C 6.457031 16.347656 6.386719 16.609375 6.359375 16.777344 C 6.308594 17.109375 6.34375 17.777344 6.425781 18.0625 C 6.472656 18.214844 6.464844 18.292969 6.382812 18.515625 C 6.121094 19.230469 6.132812 19.71875 6.425781 20.339844 C 6.597656 20.703125 6.605469 20.835938 6.46875 21.152344 C 6.355469 21.414062 6.339844 21.832031 6.433594 21.996094 C 6.476562 22.070312 6.503906 22.503906 6.523438 23.363281 C 6.550781 24.425781 6.570312 24.695312 6.667969 25.089844 C 6.757812 25.46875 6.792969 25.628906 6.960938 25.691406 C 7.011719 25.714844 7.066406 25.726562 7.136719 25.726562 C 7.269531 25.734375 7.449219 25.726562 7.703125 25.714844 C 8.609375 25.679688 9.089844 25.742188 10.003906 26 C 10.699219 26.195312 11.019531 26.265625 11.617188 26.347656 C 11.675781 26.355469 11.777344 26.363281 11.90625 26.367188 C 11.9375 26.375 11.960938 26.382812 11.964844 26.386719 C 11.980469 26.402344 12.316406 26.402344 12.75 26.394531 L 12.761719 26.394531 C 12.839844 26.398438 12.914062 26.398438 12.992188 26.398438 C 14.777344 26.410156 15.546875 26.257812 17.242188 25.566406 C 18.558594 25.023438 19.011719 24.886719 19.773438 24.800781 C 19.992188 24.777344 20.195312 24.734375 20.222656 24.707031 C 20.445312 24.484375 20.386719 22.496094 20.144531 21.90625 C 20.074219 21.738281 20.078125 21.710938 20.210938 21.382812 C 20.464844 20.773438 20.535156 20.472656 20.53125 20.019531 C 20.53125 19.671875 20.511719 19.550781 20.417969 19.371094 C 20.292969 19.125 20.292969 19.066406 20.445312 18.285156 C 20.511719 17.941406 20.535156 17.566406 20.535156 16.742188 L 20.539062 15.65625 L 20.589844 15.652344 L 20.847656 15.652344 C 21.210938 15.652344 21.476562 15.550781 21.714844 15.320312 C 21.871094 15.171875 21.953125 15.140625 22.445312 15.046875 C 23.433594 14.859375 24.625 14.453125 24.828125 14.234375 C 24.851562 14.207031 24.871094 14.183594 24.882812 14.15625 C 24.902344 14.125 24.914062 14.097656 24.914062 14.066406 C 24.914062 14.042969 24.902344 13.984375 24.886719 13.90625 C 24.871094 13.824219 24.851562 13.714844 24.820312 13.558594 C 24.726562 13.097656 24.042969 10.824219 23.683594 9.789062 C 23.53125 9.347656 23.515625 9.246094 23.542969 8.980469 C 23.578125 8.613281 23.511719 8.335938 23.320312 8.074219 C 23.210938 7.917969 23.171875 7.796875 23.148438 7.523438 C 23.085938 6.875 22.703125 5.359375 22.496094 4.945312 C 22.113281 4.191406 21.542969 3.84375 19.574219 3.167969 C 18.164062 2.679688 17.59375 2.445312 17.203125 2.183594 C 17.003906 2.046875 16.800781 1.921875 16.75 1.902344 C 16.699219 1.882812 16.539062 1.921875 16.375 1.988281 C 15.816406 2.222656 14.871094 2.367188 13.867188 2.371094 C 12.792969 2.371094 12.207031 2.238281 11.183594 1.753906 C 11.160156 1.742188 11.132812 1.738281 11.097656 1.734375 Z M 11.003906 2.171875 L 11.246094 2.585938 C 11.546875 3.105469 12.261719 3.835938 12.695312 4.066406 C 12.859375 4.152344 13.164062 4.261719 13.367188 4.3125 C 13.691406 4.382812 13.785156 4.386719 14.066406 4.332031 C 14.464844 4.253906 14.90625 4.058594 15.296875 3.789062 C 15.589844 3.589844 16.324219 2.859375 16.570312 2.523438 L 16.699219 2.351562 L 16.933594 2.5 C 17.078125 2.589844 17.164062 2.683594 17.164062 2.742188 C 17.164062 2.878906 16.863281 3.402344 16.582031 3.753906 C 16.050781 4.414062 15.359375 4.832031 14.503906 5.011719 C 12.972656 5.332031 11.351562 4.496094 10.582031 2.996094 C 10.363281 2.566406 10.371094 2.535156 10.75 2.316406 Z M 11.398438 2.382812 C 11.441406 2.386719 11.59375 2.429688 11.765625 2.492188 C 12.390625 2.71875 12.671875 2.78125 13.410156 2.792969 C 13.699219 2.824219 13.882812 2.824219 14.234375 2.792969 C 15.046875 2.777344 15.574219 2.714844 16.066406 2.570312 C 16.160156 2.546875 16.242188 2.53125 16.253906 2.542969 C 16.265625 2.554688 16.132812 2.714844 15.957031 2.898438 C 15.636719 3.238281 15.617188 3.246094 15.042969 3.378906 C 14.738281 3.449219 13.488281 3.476562 13.070312 3.425781 C 12.867188 3.398438 12.519531 3.320312 12.292969 3.253906 C 11.886719 3.128906 11.886719 3.128906 11.625 2.765625 C 11.484375 2.566406 11.378906 2.394531 11.386719 2.382812 C 11.390625 2.382812 11.394531 2.382812 11.398438 2.382812 Z M 10.164062 2.675781 L 10.378906 3.085938 C 10.546875 3.417969 10.703125 3.613281 11.140625 4.058594 C 11.589844 4.511719 11.765625 4.652344 12.09375 4.820312 C 13.082031 5.324219 14.007812 5.402344 15.027344 5.058594 C 15.949219 4.75 16.753906 4.035156 17.242188 3.082031 C 17.339844 2.890625 17.402344 2.824219 17.460938 2.839844 C 17.503906 2.855469 17.753906 2.949219 18.015625 3.050781 C 18.277344 3.152344 18.972656 3.402344 19.558594 3.605469 C 21.515625 4.285156 21.976562 4.609375 22.265625 5.503906 L 22.363281 5.808594 C 22.363281 5.816406 22.363281 5.828125 22.363281 5.835938 C 22.363281 5.84375 22.363281 5.855469 22.359375 5.863281 L 22.140625 6.261719 C 22.011719 6.492188 21.851562 6.746094 21.785156 6.828125 C 21.671875 6.96875 21.667969 6.96875 21.667969 6.855469 C 21.664062 6.726562 21.53125 6.4375 21.445312 6.382812 C 21.359375 6.324219 21.089844 6.335938 21.023438 6.402344 C 20.898438 6.53125 20.957031 6.597656 21.160156 6.566406 C 21.324219 6.539062 21.363281 6.550781 21.410156 6.636719 C 21.492188 6.789062 21.480469 7.148438 21.394531 7.148438 C 21.355469 7.148438 21.1875 7.296875 21.023438 7.480469 C 20.859375 7.660156 20.714844 7.792969 20.699219 7.769531 C 20.671875 7.726562 20.710938 7.496094 20.839844 6.945312 C 20.875 6.792969 20.890625 6.652344 20.878906 6.628906 C 20.820312 6.53125 20.679688 6.765625 20.621094 7.058594 C 20.472656 7.800781 20.449219 7.945312 20.386719 8.546875 C 20.355469 8.816406 20.273438 10.847656 20.214844 12.679688 C 20.1875 13.550781 20.148438 14.410156 20.125 14.589844 C 20.105469 14.777344 19.902344 15.464844 19.65625 16.199219 C 19.417969 16.902344 19.152344 17.707031 19.0625 17.984375 C 18.675781 19.195312 17.996094 20.871094 17.664062 21.4375 C 17.554688 21.621094 17.464844 21.785156 17.464844 21.804688 C 17.464844 21.820312 17.515625 21.828125 17.574219 21.820312 C 17.808594 21.785156 18.5 20.234375 19.261719 18.007812 C 19.324219 17.828125 19.449219 17.488281 19.542969 17.253906 C 19.632812 17.019531 19.78125 16.617188 19.867188 16.363281 C 19.957031 16.105469 20.046875 15.910156 20.070312 15.925781 C 20.132812 15.964844 20.125 17.335938 20.0625 17.855469 C 19.917969 19.007812 19.824219 19.34375 19.40625 20.160156 C 19.003906 20.953125 18.539062 21.773438 17.976562 22.675781 C 17.757812 23.03125 17.671875 23.210938 17.707031 23.246094 C 17.734375 23.277344 17.78125 23.285156 17.808594 23.265625 C 17.941406 23.1875 19.136719 21.128906 19.652344 20.097656 C 19.949219 19.511719 19.988281 19.457031 20.046875 19.542969 C 20.160156 19.699219 20.152344 20.183594 20.035156 20.621094 C 19.90625 21.085938 19.613281 21.738281 19.398438 22.03125 C 19.289062 22.183594 18.953125 22.550781 18.652344 22.847656 C 18.132812 23.363281 17.992188 23.597656 18.324219 23.402344 C 18.484375 23.304688 19.226562 22.550781 19.523438 22.183594 L 19.707031 21.953125 L 19.761719 22.097656 C 19.863281 22.359375 19.941406 23.050781 19.960938 23.597656 C 19.960938 23.601562 19.960938 23.605469 19.960938 23.609375 C 19.957031 23.652344 19.957031 23.695312 19.957031 23.734375 L 19.945312 24.21875 C 19.933594 24.277344 19.921875 24.316406 19.90625 24.335938 C 19.871094 24.367188 19.769531 24.394531 19.679688 24.394531 C 19.210938 24.394531 18.28125 24.675781 17.066406 25.1875 C 15.949219 25.65625 15.066406 25.894531 14.058594 26 C 13.621094 26.046875 12.613281 26.058594 12.21875 26.019531 C 11.582031 25.960938 10.753906 25.785156 9.960938 25.550781 C 9.324219 25.359375 8.453125 25.242188 7.753906 25.253906 C 7.457031 25.257812 7.191406 25.242188 7.171875 25.214844 C 7.074219 25.113281 6.972656 24.160156 6.953125 23.183594 C 6.933594 22.351562 6.914062 22.101562 6.839844 21.894531 C 6.796875 21.773438 6.773438 21.707031 6.773438 21.636719 C 6.773438 21.628906 6.777344 21.617188 6.777344 21.605469 C 6.777344 21.605469 6.777344 21.601562 6.777344 21.601562 C 6.785156 21.535156 6.8125 21.453125 6.859375 21.316406 C 7.015625 20.871094 7.003906 20.609375 6.808594 20.191406 C 6.59375 19.71875 6.585938 19.316406 6.789062 18.699219 L 6.9375 18.261719 L 6.851562 17.914062 C 6.730469 17.402344 6.746094 16.894531 6.894531 16.417969 C 6.964844 16.203125 7.03125 15.949219 7.050781 15.859375 C 7.085938 15.667969 7.144531 15.644531 7.183594 15.808594 C 7.257812 16.125 7.835938 17.699219 8.054688 18.1875 C 8.488281 19.15625 9.273438 20.515625 9.804688 21.226562 C 10.027344 21.523438 10.464844 21.980469 10.523438 21.980469 C 10.628906 21.980469 10.550781 21.816406 10.3125 21.542969 C 10.171875 21.382812 9.960938 21.117188 9.84375 20.949219 C 9.324219 20.210938 8.292969 18.222656 7.882812 17.179688 C 7.714844 16.75 7.394531 15.765625 7.097656 14.765625 C 7.023438 14.515625 6.941406 14.257812 6.917969 14.1875 C 6.746094 13.675781 6.488281 12.117188 6.539062 11.878906 C 6.554688 11.804688 6.535156 11.554688 6.496094 11.320312 C 6.3125 10.1875 6.28125 8.964844 6.402344 7.902344 C 6.535156 6.722656 6.539062 6.5 6.433594 6.21875 C 6.363281 6.027344 6.289062 5.933594 6.117188 5.820312 C 5.996094 5.738281 5.878906 5.640625 5.855469 5.605469 C 5.796875 5.507812 5.582031 5.523438 5.523438 5.628906 C 5.5 5.679688 5.46875 5.867188 5.460938 6.046875 C 5.449219 6.222656 5.421875 6.367188 5.394531 6.367188 C 5.320312 6.363281 4.957031 5.734375 4.957031 5.605469 C 4.957031 5.429688 5.167969 4.941406 5.378906 4.625 C 5.683594 4.167969 5.960938 3.992188 6.59375 3.855469 C 7.503906 3.65625 9.148438 3.132812 9.878906 2.804688 Z M 12.402344 3.539062 C 12.421875 3.539062 12.460938 3.546875 12.523438 3.558594 C 12.617188 3.574219 12.769531 3.613281 12.867188 3.644531 C 13.121094 3.722656 14.695312 3.71875 14.933594 3.632812 C 15.039062 3.597656 15.136719 3.578125 15.148438 3.59375 C 15.1875 3.628906 14.761719 3.871094 14.453125 3.988281 C 14.152344 4.105469 13.578125 4.148438 13.296875 4.078125 C 13.058594 4.015625 12.550781 3.75 12.4375 3.621094 C 12.386719 3.566406 12.367188 3.542969 12.402344 3.539062 Z M 5.777344 5.851562 C 5.902344 5.855469 6.160156 6.148438 6.21875 6.367188 C 6.277344 6.574219 6.257812 7.140625 6.183594 7.332031 C 6.171875 7.367188 6.144531 7.398438 6.128906 7.398438 C 6.035156 7.394531 5.613281 7.082031 5.476562 6.914062 C 5.285156 6.679688 5.273438 6.582031 5.445312 6.625 C 5.59375 6.660156 5.613281 6.625 5.660156 6.191406 C 5.679688 6.015625 5.722656 5.863281 5.753906 5.855469 C 5.761719 5.851562 5.769531 5.851562 5.777344 5.851562 Z M 22.429688 6.222656 C 22.449219 6.222656 22.460938 6.25 22.476562 6.296875 C 22.570312 6.542969 22.710938 7.285156 22.742188 7.710938 C 22.773438 8.105469 22.789062 8.160156 22.917969 8.277344 C 23.097656 8.433594 23.132812 8.582031 23.097656 8.972656 C 23.074219 9.25 23.097656 9.355469 23.34375 10.085938 C 23.582031 10.785156 24.300781 13.136719 24.3125 13.242188 C 24.3125 13.246094 24.3125 13.25 24.3125 13.25 C 24.269531 13.296875 23.609375 13.511719 23.214844 13.605469 C 23.035156 13.648438 22.808594 13.707031 22.714844 13.730469 C 22.617188 13.757812 22.433594 13.804688 22.300781 13.839844 C 22.058594 13.898438 21.96875 14.035156 22.175781 14.035156 C 22.320312 14.035156 23.207031 13.816406 23.832031 13.625 C 24.105469 13.542969 24.34375 13.492188 24.363281 13.515625 C 24.382812 13.539062 24.425781 13.636719 24.457031 13.734375 C 24.511719 13.890625 24.507812 13.917969 24.414062 13.996094 C 24.273438 14.109375 23.359375 14.410156 22.6875 14.5625 C 22.386719 14.632812 22.078125 14.6875 22 14.6875 L 21.859375 14.691406 L 21.886719 14.273438 C 21.949219 13.292969 21.980469 12.082031 22.007812 9.511719 L 22.039062 6.785156 C 22.042969 6.769531 22.050781 6.757812 22.058594 6.746094 L 22.234375 6.472656 C 22.351562 6.292969 22.398438 6.222656 22.429688 6.222656 Z M 4.757812 6.292969 C 4.777344 6.292969 4.851562 6.402344 4.921875 6.53125 C 5.042969 6.769531 5.582031 7.324219 5.953125 7.597656 L 6.148438 7.746094 L 6.105469 8.164062 C 6.058594 8.625 6.097656 10.277344 6.171875 10.867188 C 6.199219 11.074219 6.242188 11.539062 6.265625 11.898438 C 6.289062 12.257812 6.335938 12.6875 6.363281 12.855469 C 6.421875 13.207031 6.675781 14.207031 6.824219 14.667969 C 6.882812 14.84375 6.914062 15.011719 6.894531 15.039062 C 6.828125 15.148438 6.648438 15.085938 6.464844 14.886719 C 6.261719 14.664062 6.234375 14.660156 5.746094 14.714844 C 5.71875 14.71875 5.691406 14.722656 5.664062 14.722656 L 5.441406 14.722656 C 5.328125 14.722656 5.234375 14.71875 5.144531 14.71875 C 4.554688 14.664062 3.828125 14.476562 3.09375 14.171875 C 2.847656 14.070312 2.792969 14.023438 2.78125 13.914062 C 2.769531 13.835938 2.792969 13.773438 2.832031 13.757812 C 2.871094 13.742188 3.132812 13.8125 3.417969 13.910156 C 3.785156 14.039062 3.949219 14.078125 3.988281 14.039062 C 4.085938 13.941406 3.859375 13.789062 3.351562 13.613281 C 3.101562 13.523438 2.886719 13.445312 2.851562 13.429688 C 2.847656 13.421875 2.847656 13.417969 2.84375 13.410156 C 2.84375 13.28125 3.015625 12.332031 3.125 11.875 C 3.261719 11.304688 3.660156 9.945312 3.773438 9.652344 C 3.882812 9.371094 4.019531 8.621094 4.019531 8.296875 C 4.019531 8.117188 4.050781 8.023438 4.144531 7.914062 C 4.308594 7.714844 4.371094 7.539062 4.371094 7.265625 C 4.371094 7.078125 4.402344 7 4.546875 6.832031 C 4.667969 6.6875 4.71875 6.578125 4.71875 6.460938 C 4.71875 6.367188 4.738281 6.292969 4.757812 6.292969 Z M 21.828125 7.199219 C 21.832031 7.199219 21.835938 7.199219 21.835938 7.203125 C 21.875 7.242188 21.777344 13.644531 21.734375 13.910156 C 21.6875 14.207031 21.582031 14.355469 21.285156 14.539062 C 21.078125 14.664062 20.941406 14.707031 20.683594 14.726562 L 20.347656 14.753906 L 20.382812 14.558594 C 20.453125 14.164062 20.511719 12.308594 20.511719 10.71875 C 20.507812 9.164062 20.550781 8.46875 20.671875 8.246094 C 20.761719 8.070312 21.316406 7.398438 21.371094 7.398438 C 21.40625 7.398438 21.414062 7.488281 21.390625 7.664062 C 21.296875 8.4375 20.925781 10.210938 20.792969 10.542969 C 20.757812 10.625 20.691406 10.855469 20.640625 11.058594 C 20.5625 11.351562 20.558594 11.433594 20.609375 11.484375 C 20.660156 11.535156 20.683594 11.53125 20.734375 11.460938 C 20.789062 11.386719 20.992188 10.609375 21.265625 9.4375 C 21.34375 9.101562 21.449219 8.503906 21.515625 8.054688 C 21.546875 7.816406 21.582031 7.578125 21.59375 7.523438 C 21.617188 7.40625 21.777344 7.191406 21.828125 7.199219 Z M 21.617188 14.589844 C 21.800781 14.589844 21.445312 15.0625 21.179688 15.175781 C 21.023438 15.242188 20.84375 15.253906 20.640625 15.210938 L 20.425781 15.164062 C 20.234375 15.125 20.289062 14.992188 20.503906 14.992188 C 20.710938 14.992188 21.125 14.851562 21.394531 14.691406 C 21.492188 14.636719 21.589844 14.589844 21.617188 14.589844 Z M 8.332031 15.800781 C 8.226562 15.796875 8.261719 15.9375 8.472656 16.363281 C 9.628906 18.6875 11.785156 21.203125 13.84375 22.625 C 14.191406 22.867188 14.476562 22.914062 14.328125 22.707031 C 14.308594 22.679688 14.0625 22.492188 13.777344 22.289062 C 13.101562 21.808594 12.753906 21.515625 12.097656 20.875 C 10.835938 19.640625 9.558594 17.941406 8.761719 16.425781 C 8.566406 16.058594 8.410156 15.816406 8.355469 15.804688 C 8.347656 15.804688 8.339844 15.804688 8.332031 15.800781 Z M 7.070312 22.273438 C 7.03125 22.277344 7.019531 22.296875 7.019531 22.335938 C 7.019531 22.390625 7.808594 22.792969 8.636719 23.160156 C 8.96875 23.304688 9.402344 23.503906 9.59375 23.59375 C 9.785156 23.683594 10.179688 23.84375 10.46875 23.949219 C 11.003906 24.140625 11.292969 24.175781 11.292969 24.046875 C 11.292969 24.035156 11.269531 24.015625 11.226562 23.992188 L 11.226562 23.988281 C 11.207031 23.976562 11.183594 23.960938 11.160156 23.957031 L 11.15625 23.953125 C 11.046875 23.902344 10.882812 23.839844 10.667969 23.769531 C 9.957031 23.527344 8.78125 23.035156 7.789062 22.558594 C 7.351562 22.351562 7.152344 22.265625 7.070312 22.273438 Z M 7.070312 22.273438 " fill-opacity="1" fill-rule="nonzero"/></g><g fill="#000000" fill-opacity="1"><g transform="translate(27.181138, 21.325566)"><g><path d="M 6.078125 -0.859375 L 6.078125 0 L 0.5625 0 L 0.5625 -0.859375 L 0.734375 -0.859375 C 0.972656 -0.859375 1.191406 -0.875 1.390625 -0.90625 C 1.597656 -0.9375 1.773438 -1.003906 1.921875 -1.109375 C 2.078125 -1.210938 2.195312 -1.359375 2.28125 -1.546875 C 2.375 -1.742188 2.421875 -2.003906 2.421875 -2.328125 L 2.421875 -8.71875 C 2.421875 -9.019531 2.375 -9.257812 2.28125 -9.4375 C 2.195312 -9.625 2.078125 -9.765625 1.921875 -9.859375 C 1.765625 -9.960938 1.582031 -10.03125 1.375 -10.0625 C 1.175781 -10.09375 0.960938 -10.109375 0.734375 -10.109375 L 0.671875 -10.109375 L 0.671875 -10.96875 L 3.984375 -10.96875 L 4.25 -9.3125 L 4.359375 -9.3125 C 4.566406 -9.695312 4.789062 -10.007812 5.03125 -10.25 C 5.269531 -10.488281 5.519531 -10.675781 5.78125 -10.8125 C 6.039062 -10.957031 6.316406 -11.050781 6.609375 -11.09375 C 6.910156 -11.144531 7.226562 -11.171875 7.5625 -11.171875 C 8.09375 -11.171875 8.570312 -11.09375 9 -10.9375 C 9.425781 -10.78125 9.785156 -10.539062 10.078125 -10.21875 C 10.378906 -9.894531 10.609375 -9.476562 10.765625 -8.96875 C 10.921875 -8.46875 11 -7.867188 11 -7.171875 L 11 -2.328125 C 11 -2.003906 11.035156 -1.742188 11.109375 -1.546875 C 11.179688 -1.359375 11.285156 -1.210938 11.421875 -1.109375 C 11.566406 -1.003906 11.734375 -0.9375 11.921875 -0.90625 C 12.117188 -0.875 12.332031 -0.859375 12.5625 -0.859375 L 12.640625 -0.859375 L 12.640625 0 L 9.0625 0 L 9.0625 -7.0625 C 9.0625 -7.507812 9.019531 -7.90625 8.9375 -8.25 C 8.863281 -8.601562 8.738281 -8.898438 8.5625 -9.140625 C 8.382812 -9.378906 8.148438 -9.554688 7.859375 -9.671875 C 7.578125 -9.796875 7.226562 -9.859375 6.8125 -9.859375 C 6.34375 -9.859375 5.953125 -9.769531 5.640625 -9.59375 C 5.328125 -9.414062 5.070312 -9.171875 4.875 -8.859375 C 4.6875 -8.554688 4.550781 -8.203125 4.46875 -7.796875 C 4.382812 -7.398438 4.34375 -6.984375 4.34375 -6.546875 L 4.34375 -2.234375 C 4.34375 -1.929688 4.382812 -1.6875 4.46875 -1.5 C 4.5625 -1.320312 4.679688 -1.1875 4.828125 -1.09375 C 4.984375 -1 5.160156 -0.9375 5.359375 -0.90625 C 5.566406 -0.875 5.785156 -0.859375 6.015625 -0.859375 Z M 6.078125 -0.859375 "/></g></g></g><g fill="#000000" fill-opacity="1"><g transform="translate(44.909837, 21.325566)"><g><path d="M 10.6875 -5.5 C 10.6875 -3.582031 10.273438 -2.148438 9.453125 -1.203125 C 8.640625 -0.265625 7.445312 0.203125 5.875 0.203125 C 5.132812 0.203125 4.472656 0.0859375 3.890625 -0.140625 C 3.304688 -0.378906 2.804688 -0.734375 2.390625 -1.203125 C 1.984375 -1.679688 1.671875 -2.273438 1.453125 -2.984375 C 1.234375 -3.703125 1.125 -4.539062 1.125 -5.5 C 1.125 -7.414062 1.53125 -8.835938 2.34375 -9.765625 C 3.15625 -10.703125 4.351562 -11.171875 5.9375 -11.171875 C 6.675781 -11.171875 7.335938 -11.054688 7.921875 -10.828125 C 8.515625 -10.597656 9.015625 -10.25 9.421875 -9.78125 C 9.828125 -9.3125 10.140625 -8.722656 10.359375 -8.015625 C 10.578125 -7.304688 10.6875 -6.46875 10.6875 -5.5 Z M 3.109375 -5.5 C 3.109375 -4.75 3.15625 -4.082031 3.25 -3.5 C 3.351562 -2.914062 3.515625 -2.425781 3.734375 -2.03125 C 3.960938 -1.644531 4.253906 -1.351562 4.609375 -1.15625 C 4.960938 -0.957031 5.398438 -0.859375 5.921875 -0.859375 C 6.429688 -0.859375 6.863281 -0.957031 7.21875 -1.15625 C 7.570312 -1.351562 7.859375 -1.644531 8.078125 -2.03125 C 8.296875 -2.425781 8.453125 -2.914062 8.546875 -3.5 C 8.640625 -4.082031 8.6875 -4.75 8.6875 -5.5 C 8.6875 -6.257812 8.632812 -6.925781 8.53125 -7.5 C 8.4375 -8.070312 8.28125 -8.550781 8.0625 -8.9375 C 7.84375 -9.320312 7.554688 -9.609375 7.203125 -9.796875 C 6.847656 -9.992188 6.410156 -10.09375 5.890625 -10.09375 C 5.378906 -10.09375 4.945312 -9.992188 4.59375 -9.796875 C 4.238281 -9.609375 3.953125 -9.320312 3.734375 -8.9375 C 3.515625 -8.550781 3.351562 -8.070312 3.25 -7.5 C 3.15625 -6.925781 3.109375 -6.257812 3.109375 -5.5 Z M 3.109375 -5.5 "/></g></g></g><g fill="#000000" fill-opacity="1"><g transform="translate(61.249173, 21.325566)"><g><path d="M 5.421875 -0.875 C 5.671875 -0.875 5.898438 -0.882812 6.109375 -0.90625 C 6.316406 -0.9375 6.523438 -0.972656 6.734375 -1.015625 L 6.734375 -0.125 C 6.648438 -0.0820312 6.535156 -0.0390625 6.390625 0 C 6.253906 0.0390625 6.101562 0.078125 5.9375 0.109375 C 5.78125 0.140625 5.609375 0.160156 5.421875 0.171875 C 5.242188 0.191406 5.078125 0.203125 4.921875 0.203125 C 4.398438 0.203125 3.953125 0.144531 3.578125 0.03125 C 3.203125 -0.0703125 2.894531 -0.25 2.65625 -0.5 C 2.414062 -0.75 2.238281 -1.078125 2.125 -1.484375 C 2.007812 -1.890625 1.953125 -2.382812 1.953125 -2.96875 L 1.953125 -9.796875 L 0.390625 -9.796875 L 0.390625 -10.625 C 0.640625 -10.625 0.910156 -10.671875 1.203125 -10.765625 C 1.503906 -10.867188 1.765625 -11.039062 1.984375 -11.28125 C 2.222656 -11.53125 2.410156 -11.828125 2.546875 -12.171875 C 2.691406 -12.523438 2.816406 -12.96875 2.921875 -13.5 L 3.875 -13.5 L 3.875 -10.96875 L 6.546875 -10.96875 L 6.546875 -9.796875 L 3.875 -9.796875 L 3.875 -2.90625 C 3.875 -2.207031 4.015625 -1.691406 4.296875 -1.359375 C 4.578125 -1.035156 4.953125 -0.875 5.421875 -0.875 Z M 5.421875 -0.875 "/></g></g></g><g fill="#000000" fill-opacity="1"><g transform="translate(72.980641, 21.325566)"><g><path d="M 4.296875 0.203125 C 3.785156 0.203125 3.320312 0.15625 2.90625 0.0625 C 2.488281 -0.0195312 2.132812 -0.15625 1.84375 -0.34375 C 1.550781 -0.53125 1.320312 -0.753906 1.15625 -1.015625 C 1 -1.285156 0.921875 -1.601562 0.921875 -1.96875 C 0.921875 -2.238281 0.960938 -2.460938 1.046875 -2.640625 C 1.140625 -2.828125 1.25 -2.972656 1.375 -3.078125 C 1.507812 -3.191406 1.648438 -3.269531 1.796875 -3.3125 C 1.953125 -3.351562 2.085938 -3.375 2.203125 -3.375 C 2.203125 -3.019531 2.238281 -2.6875 2.3125 -2.375 C 2.382812 -2.0625 2.507812 -1.785156 2.6875 -1.546875 C 2.863281 -1.304688 3.09375 -1.117188 3.375 -0.984375 C 3.65625 -0.847656 4.003906 -0.78125 4.421875 -0.78125 C 4.785156 -0.78125 5.109375 -0.820312 5.390625 -0.90625 C 5.671875 -1 5.90625 -1.128906 6.09375 -1.296875 C 6.28125 -1.460938 6.421875 -1.660156 6.515625 -1.890625 C 6.617188 -2.117188 6.671875 -2.367188 6.671875 -2.640625 C 6.671875 -2.890625 6.632812 -3.101562 6.5625 -3.28125 C 6.488281 -3.46875 6.351562 -3.640625 6.15625 -3.796875 C 5.96875 -3.960938 5.707031 -4.128906 5.375 -4.296875 C 5.050781 -4.460938 4.644531 -4.65625 4.15625 -4.875 C 3.632812 -5.101562 3.175781 -5.320312 2.78125 -5.53125 C 2.394531 -5.75 2.070312 -5.984375 1.8125 -6.234375 C 1.5625 -6.492188 1.375 -6.785156 1.25 -7.109375 C 1.125 -7.429688 1.0625 -7.816406 1.0625 -8.265625 C 1.0625 -8.734375 1.148438 -9.144531 1.328125 -9.5 C 1.515625 -9.863281 1.773438 -10.164062 2.109375 -10.40625 C 2.453125 -10.65625 2.859375 -10.84375 3.328125 -10.96875 C 3.804688 -11.09375 4.335938 -11.15625 4.921875 -11.15625 C 5.398438 -11.15625 5.828125 -11.101562 6.203125 -11 C 6.578125 -10.90625 6.890625 -10.769531 7.140625 -10.59375 C 7.398438 -10.425781 7.59375 -10.226562 7.71875 -10 C 7.84375 -9.769531 7.90625 -9.53125 7.90625 -9.28125 C 7.90625 -8.90625 7.773438 -8.601562 7.515625 -8.375 C 7.265625 -8.15625 6.898438 -8.046875 6.421875 -8.046875 C 6.421875 -8.734375 6.28125 -9.265625 6 -9.640625 C 5.71875 -10.023438 5.273438 -10.21875 4.671875 -10.21875 C 4.316406 -10.21875 4.015625 -10.175781 3.765625 -10.09375 C 3.523438 -10.007812 3.328125 -9.894531 3.171875 -9.75 C 3.015625 -9.601562 2.898438 -9.429688 2.828125 -9.234375 C 2.753906 -9.035156 2.71875 -8.816406 2.71875 -8.578125 C 2.71875 -8.316406 2.765625 -8.085938 2.859375 -7.890625 C 2.953125 -7.703125 3.097656 -7.53125 3.296875 -7.375 C 3.503906 -7.21875 3.769531 -7.0625 4.09375 -6.90625 C 4.414062 -6.757812 4.800781 -6.59375 5.25 -6.40625 C 5.789062 -6.175781 6.253906 -5.953125 6.640625 -5.734375 C 7.023438 -5.515625 7.34375 -5.273438 7.59375 -5.015625 C 7.84375 -4.753906 8.023438 -4.457031 8.140625 -4.125 C 8.265625 -3.800781 8.328125 -3.429688 8.328125 -3.015625 C 8.328125 -2.472656 8.226562 -2.003906 8.03125 -1.609375 C 7.84375 -1.210938 7.570312 -0.878906 7.21875 -0.609375 C 6.875 -0.335938 6.453125 -0.132812 5.953125 0 C 5.453125 0.132812 4.898438 0.203125 4.296875 0.203125 Z M 4.296875 0.203125 "/></g></g></g><g fill="#000000" fill-opacity="1"><g transform="translate(86.741168, 21.325566)"><g><path d="M 5.875 -0.859375 L 5.875 0 L 0.375 0 L 0.375 -0.859375 L 0.53125 -0.859375 C 0.757812 -0.859375 0.972656 -0.875 1.171875 -0.90625 C 1.378906 -0.9375 1.554688 -1.003906 1.703125 -1.109375 C 1.859375 -1.210938 1.976562 -1.359375 2.0625 -1.546875 C 2.15625 -1.742188 2.203125 -2.003906 2.203125 -2.328125 L 2.203125 -13.296875 C 2.203125 -13.597656 2.15625 -13.835938 2.0625 -14.015625 C 1.976562 -14.203125 1.859375 -14.347656 1.703125 -14.453125 C 1.554688 -14.554688 1.378906 -14.617188 1.171875 -14.640625 C 0.972656 -14.671875 0.757812 -14.6875 0.53125 -14.6875 L 0.375 -14.6875 L 0.375 -15.546875 L 4.140625 -15.546875 L 4.140625 -11.046875 C 4.140625 -10.867188 4.132812 -10.675781 4.125 -10.46875 C 4.125 -10.269531 4.113281 -10.082031 4.09375 -9.90625 C 4.082031 -9.707031 4.070312 -9.507812 4.0625 -9.3125 L 4.15625 -9.3125 C 4.769531 -10.550781 5.773438 -11.171875 7.171875 -11.171875 C 7.742188 -11.171875 8.253906 -11.09375 8.703125 -10.9375 C 9.160156 -10.78125 9.539062 -10.539062 9.84375 -10.21875 C 10.144531 -9.894531 10.375 -9.476562 10.53125 -8.96875 C 10.695312 -8.46875 10.78125 -7.867188 10.78125 -7.171875 L 10.78125 -2.328125 C 10.78125 -2.003906 10.820312 -1.742188 10.90625 -1.546875 C 10.988281 -1.359375 11.097656 -1.210938 11.234375 -1.109375 C 11.367188 -1.003906 11.53125 -0.9375 11.71875 -0.90625 C 11.914062 -0.875 12.128906 -0.859375 12.359375 -0.859375 L 12.421875 -0.859375 L 12.421875 0 L 8.859375 0 L 8.859375 -7.0625 C 8.859375 -7.507812 8.816406 -7.90625 8.734375 -8.25 C 8.660156 -8.601562 8.535156 -8.898438 8.359375 -9.140625 C 8.179688 -9.378906 7.945312 -9.554688 7.65625 -9.671875 C 7.375 -9.796875 7.023438 -9.859375 6.609375 -9.859375 C 6.191406 -9.859375 5.828125 -9.78125 5.515625 -9.625 C 5.203125 -9.46875 4.941406 -9.242188 4.734375 -8.953125 C 4.535156 -8.671875 4.382812 -8.320312 4.28125 -7.90625 C 4.1875 -7.5 4.140625 -7.046875 4.140625 -6.546875 L 4.140625 -2.234375 C 4.140625 -1.929688 4.179688 -1.6875 4.265625 -1.5 C 4.359375 -1.320312 4.484375 -1.1875 4.640625 -1.09375 C 4.796875 -1 4.972656 -0.9375 5.171875 -0.90625 C 5.378906 -0.875 5.59375 -0.859375 5.8125 -0.859375 Z M 5.875 -0.859375 "/></g></g></g><g fill="#000000" fill-opacity="1"><g transform="translate(104.259959, 21.325566)"><g><path d="M 10.6875 -5.5 C 10.6875 -3.582031 10.273438 -2.148438 9.453125 -1.203125 C 8.640625 -0.265625 7.445312 0.203125 5.875 0.203125 C 5.132812 0.203125 4.472656 0.0859375 3.890625 -0.140625 C 3.304688 -0.378906 2.804688 -0.734375 2.390625 -1.203125 C 1.984375 -1.679688 1.671875 -2.273438 1.453125 -2.984375 C 1.234375 -3.703125 1.125 -4.539062 1.125 -5.5 C 1.125 -7.414062 1.53125 -8.835938 2.34375 -9.765625 C 3.15625 -10.703125 4.351562 -11.171875 5.9375 -11.171875 C 6.675781 -11.171875 7.335938 -11.054688 7.921875 -10.828125 C 8.515625 -10.597656 9.015625 -10.25 9.421875 -9.78125 C 9.828125 -9.3125 10.140625 -8.722656 10.359375 -8.015625 C 10.578125 -7.304688 10.6875 -6.46875 10.6875 -5.5 Z M 3.109375 -5.5 C 3.109375 -4.75 3.15625 -4.082031 3.25 -3.5 C 3.351562 -2.914062 3.515625 -2.425781 3.734375 -2.03125 C 3.960938 -1.644531 4.253906 -1.351562 4.609375 -1.15625 C 4.960938 -0.957031 5.398438 -0.859375 5.921875 -0.859375 C 6.429688 -0.859375 6.863281 -0.957031 7.21875 -1.15625 C 7.570312 -1.351562 7.859375 -1.644531 8.078125 -2.03125 C 8.296875 -2.425781 8.453125 -2.914062 8.546875 -3.5 C 8.640625 -4.082031 8.6875 -4.75 8.6875 -5.5 C 8.6875 -6.257812 8.632812 -6.925781 8.53125 -7.5 C 8.4375 -8.070312 8.28125 -8.550781 8.0625 -8.9375 C 7.84375 -9.320312 7.554688 -9.609375 7.203125 -9.796875 C 6.847656 -9.992188 6.410156 -10.09375 5.890625 -10.09375 C 5.378906 -10.09375 4.945312 -9.992188 4.59375 -9.796875 C 4.238281 -9.609375 3.953125 -9.320312 3.734375 -8.9375 C 3.515625 -8.550781 3.351562 -8.070312 3.25 -7.5 C 3.15625 -6.925781 3.109375 -6.257812 3.109375 -5.5 Z M 3.109375 -5.5 "/></g></g></g><g fill="#000000" fill-opacity="1"><g transform="translate(120.599295, 21.325566)"><g><path d="M 5.625 -10.078125 C 4.863281 -10.078125 4.28125 -9.765625 3.875 -9.140625 C 3.46875 -8.523438 3.222656 -7.628906 3.140625 -6.453125 L 7.859375 -6.453125 C 7.859375 -6.984375 7.816406 -7.472656 7.734375 -7.921875 C 7.648438 -8.367188 7.519531 -8.753906 7.34375 -9.078125 C 7.175781 -9.398438 6.953125 -9.644531 6.671875 -9.8125 C 6.390625 -9.988281 6.039062 -10.078125 5.625 -10.078125 Z M 5.875 0.203125 C 5.132812 0.203125 4.46875 0.078125 3.875 -0.171875 C 3.289062 -0.421875 2.796875 -0.785156 2.390625 -1.265625 C 1.984375 -1.742188 1.671875 -2.332031 1.453125 -3.03125 C 1.234375 -3.726562 1.125 -4.519531 1.125 -5.40625 C 1.125 -7.320312 1.515625 -8.757812 2.296875 -9.71875 C 3.085938 -10.6875 4.210938 -11.171875 5.671875 -11.171875 C 6.328125 -11.171875 6.914062 -11.066406 7.4375 -10.859375 C 7.96875 -10.648438 8.414062 -10.34375 8.78125 -9.9375 C 9.144531 -9.53125 9.425781 -9.019531 9.625 -8.40625 C 9.820312 -7.800781 9.921875 -7.09375 9.921875 -6.28125 L 9.921875 -5.34375 L 3.109375 -5.34375 C 3.117188 -4.601562 3.191406 -3.960938 3.328125 -3.421875 C 3.460938 -2.890625 3.660156 -2.445312 3.921875 -2.09375 C 4.179688 -1.75 4.492188 -1.492188 4.859375 -1.328125 C 5.234375 -1.171875 5.664062 -1.09375 6.15625 -1.09375 C 6.507812 -1.09375 6.835938 -1.128906 7.140625 -1.203125 C 7.441406 -1.285156 7.710938 -1.394531 7.953125 -1.53125 C 8.203125 -1.664062 8.421875 -1.816406 8.609375 -1.984375 C 8.804688 -2.148438 8.960938 -2.328125 9.078125 -2.515625 C 9.171875 -2.472656 9.257812 -2.390625 9.34375 -2.265625 C 9.425781 -2.140625 9.46875 -1.988281 9.46875 -1.8125 C 9.46875 -1.613281 9.394531 -1.394531 9.25 -1.15625 C 9.101562 -0.914062 8.878906 -0.695312 8.578125 -0.5 C 8.285156 -0.300781 7.910156 -0.132812 7.453125 0 C 7.003906 0.132812 6.476562 0.203125 5.875 0.203125 Z M 5.875 0.203125 "/></g></g></g><g fill="#000000" fill-opacity="1"><g transform="translate(136.079023, 21.325566)"><g><path d="M 4.296875 0.203125 C 3.785156 0.203125 3.320312 0.15625 2.90625 0.0625 C 2.488281 -0.0195312 2.132812 -0.15625 1.84375 -0.34375 C 1.550781 -0.53125 1.320312 -0.753906 1.15625 -1.015625 C 1 -1.285156 0.921875 -1.601562 0.921875 -1.96875 C 0.921875 -2.238281 0.960938 -2.460938 1.046875 -2.640625 C 1.140625 -2.828125 1.25 -2.972656 1.375 -3.078125 C 1.507812 -3.191406 1.648438 -3.269531 1.796875 -3.3125 C 1.953125 -3.351562 2.085938 -3.375 2.203125 -3.375 C 2.203125 -3.019531 2.238281 -2.6875 2.3125 -2.375 C 2.382812 -2.0625 2.507812 -1.785156 2.6875 -1.546875 C 2.863281 -1.304688 3.09375 -1.117188 3.375 -0.984375 C 3.65625 -0.847656 4.003906 -0.78125 4.421875 -0.78125 C 4.785156 -0.78125 5.109375 -0.820312 5.390625 -0.90625 C 5.671875 -1 5.90625 -1.128906 6.09375 -1.296875 C 6.28125 -1.460938 6.421875 -1.660156 6.515625 -1.890625 C 6.617188 -2.117188 6.671875 -2.367188 6.671875 -2.640625 C 6.671875 -2.890625 6.632812 -3.101562 6.5625 -3.28125 C 6.488281 -3.46875 6.351562 -3.640625 6.15625 -3.796875 C 5.96875 -3.960938 5.707031 -4.128906 5.375 -4.296875 C 5.050781 -4.460938 4.644531 -4.65625 4.15625 -4.875 C 3.632812 -5.101562 3.175781 -5.320312 2.78125 -5.53125 C 2.394531 -5.75 2.070312 -5.984375 1.8125 -6.234375 C 1.5625 -6.492188 1.375 -6.785156 1.25 -7.109375 C 1.125 -7.429688 1.0625 -7.816406 1.0625 -8.265625 C 1.0625 -8.734375 1.148438 -9.144531 1.328125 -9.5 C 1.515625 -9.863281 1.773438 -10.164062 2.109375 -10.40625 C 2.453125 -10.65625 2.859375 -10.84375 3.328125 -10.96875 C 3.804688 -11.09375 4.335938 -11.15625 4.921875 -11.15625 C 5.398438 -11.15625 5.828125 -11.101562 6.203125 -11 C 6.578125 -10.90625 6.890625 -10.769531 7.140625 -10.59375 C 7.398438 -10.425781 7.59375 -10.226562 7.71875 -10 C 7.84375 -9.769531 7.90625 -9.53125 7.90625 -9.28125 C 7.90625 -8.90625 7.773438 -8.601562 7.515625 -8.375 C 7.265625 -8.15625 6.898438 -8.046875 6.421875 -8.046875 C 6.421875 -8.734375 6.28125 -9.265625 6 -9.640625 C 5.71875 -10.023438 5.273438 -10.21875 4.671875 -10.21875 C 4.316406 -10.21875 4.015625 -10.175781 3.765625 -10.09375 C 3.523438 -10.007812 3.328125 -9.894531 3.171875 -9.75 C 3.015625 -9.601562 2.898438 -9.429688 2.828125 -9.234375 C 2.753906 -9.035156 2.71875 -8.816406 2.71875 -8.578125 C 2.71875 -8.316406 2.765625 -8.085938 2.859375 -7.890625 C 2.953125 -7.703125 3.097656 -7.53125 3.296875 -7.375 C 3.503906 -7.21875 3.769531 -7.0625 4.09375 -6.90625 C 4.414062 -6.757812 4.800781 -6.59375 5.25 -6.40625 C 5.789062 -6.175781 6.253906 -5.953125 6.640625 -5.734375 C 7.023438 -5.515625 7.34375 -5.273438 7.59375 -5.015625 C 7.84375 -4.753906 8.023438 -4.457031 8.140625 -4.125 C 8.265625 -3.800781 8.328125 -3.429688 8.328125 -3.015625 C 8.328125 -2.472656 8.226562 -2.003906 8.03125 -1.609375 C 7.84375 -1.210938 7.570312 -0.878906 7.21875 -0.609375 C 6.875 -0.335938 6.453125 -0.132812 5.953125 0 C 5.453125 0.132812 4.898438 0.203125 4.296875 0.203125 Z M 4.296875 0.203125 "/></g></g></g></svg>